<?xml version="1.0" standalone="no"?>
<!DOCTYPE svg PUBLIC "-//W3C//DTD SVG 20010904//EN"
 "http://www.w3.org/TR/2001/REC-SVG-20010904/DTD/svg10.dtd">
<svg version="1.0" xmlns="http://www.w3.org/2000/svg"
 width="4270.000000pt" height="2093.000000pt" viewBox="0 0 4270.000000 2093.000000" fill="black"
 preserveAspectRatio="xMidYMid meet">

<g transform="translate(0.000000,2093.000000) scale(0.100000,-0.100000)"
 stroke="none">
<path d="M18230 20916 c0 -2 374 -252 830 -556 457 -304 829 -554 827 -556 -1
-2 -1202 181 -2667 405 -1466 225 -2666 408 -2668 406 -2 -2 627 -319 1397
-706 770 -387 1399 -705 1397 -706 -1 -2 -1708 114 -3791 257 -2084 143 -3793
259 -3798 257 -5 -1 136 -99 313 -217 177 -118 323 -217 325 -220 2 -4 -8 -5
-23 -3 -90 11 -1565 143 -1572 141 -4 -2 304 -219 685 -483 381 -264 691 -482
688 -485 -2 -3 -840 -206 -1861 -451 -1021 -246 -1850 -449 -1842 -453 8 -3
1298 -222 2865 -487 1568 -265 2852 -483 2854 -485 3 -3 -11 -20 -29 -39 l-34
-35 -3278 -2 -3278 -3 1400 -405 c770 -223 1400 -407 1400 -410 0 -3 -1879
-414 -4175 -915 -2491 -543 -4168 -913 -4158 -917 10 -4 1890 -374 4178 -823
4729 -927 4217 -826 4213 -830 -2 -2 -817 -45 -1813 -96 -1144 -60 -1795 -97
-1770 -102 22 -4 652 -79 1400 -167 748 -88 1367 -161 1375 -163 8 -1 -676
-278 -1520 -615 -844 -337 -2423 -967 -3507 -1400 -1085 -433 -1969 -788
-1965 -790 4 -1 1303 86 2887 193 1583 108 2882 194 2886 193 4 -2 -690 -217
-1542 -478 -852 -261 -1544 -477 -1537 -479 6 -2 523 -54 1149 -115 684 -67
1138 -115 1137 -121 0 -5 -297 -368 -659 -805 -363 -437 -659 -799 -659 -805
-1 -5 836 -199 1859 -430 1024 -232 1863 -424 1866 -426 2 -3 21 -185 40 -405
20 -219 37 -406 38 -414 2 -13 88 -16 677 -20 l675 -5 110 -310 110 -310 35 3
c57 5 1144 152 1156 156 7 3 5 46 -7 143 -174 1373 -216 3071 -104 4188 135
1337 440 2224 935 2715 141 140 309 252 478 320 18 7 79 58 135 114 187 187
406 307 667 367 126 29 363 36 508 15 134 -20 277 -56 378 -95 l74 -29 55 108
c331 646 925 1068 1591 1129 l90 8 110 77 c160 114 350 226 599 351 1230 620
2987 1024 5010 1150 486 30 666 36 1285 42 1210 11 2411 -52 3680 -193 2221
-247 4345 -953 6230 -2072 847 -502 1635 -1087 2245 -1666 l150 -143 170 -7
c987 -41 2243 -245 3190 -519 850 -247 1628 -584 2200 -955 60 -39 111 -69
113 -67 6 5 -163 272 -332 525 -608 913 -1390 1909 -2170 2765 -1646 1806
-3407 3227 -5256 4240 -2348 1286 -6257 2511 -11173 3500 -1113 224 -2319 443
-3197 580 -124 19 -237 37 -252 40 -16 2 -28 3 -28 1z m-2166 -6076 c698 -33
1270 -61 1272 -63 2 -1 -785 -188 -1748 -414 l-1750 -411 -379 141 c-208 78
-379 144 -379 147 0 12 1646 658 1680 659 19 0 606 -26 1304 -59z"/>
<path d="M22900 14233 c-3287 -87 -5611 -539 -6767 -1314 -308 -207 -568 -481
-692 -728 -51 -101 -43 -100 66 11 486 494 1233 894 2068 1108 488 125 916
178 1505 187 l376 6 483 -1644 c266 -904 488 -1659 493 -1676 5 -18 13 -33 18
-33 5 0 131 72 280 159 149 88 268 156 265 152 -2 -5 -52 -64 -110 -132 -58
-68 -105 -127 -105 -131 0 -5 88 -8 195 -8 169 0 195 2 195 15 0 9 -223 786
-495 1727 -272 942 -492 1715 -488 1719 5 4 85 21 178 38 530 97 1338 214
2315 335 l435 54 815 -14 c1520 -24 2086 -46 2345 -90 50 -8 203 -40 340 -70
2333 -511 4555 -1583 6485 -3129 236 -189 523 -430 610 -512 l55 -53 -40 5
c-44 6 -638 46 -1035 70 -1037 62 -1975 103 -2880 125 -752 18 -2006 9 -2290
-16 l-75 -7 120 -14 c1280 -144 2758 -471 3906 -862 815 -278 1570 -619 2142
-970 l67 -41 1351 0 1350 0 50 -50 c51 -51 99 -137 99 -178 0 -67 -73 -147
-165 -181 -200 -75 -657 -105 -1608 -105 -372 -1 -669 -4 -660 -8 10 -4 537
-109 1171 -235 633 -125 1152 -231 1152 -236 0 -12 -299 -153 -418 -196 -1165
-423 -2737 -306 -4354 324 -78 31 -142 54 -143 53 -1 -2 288 -318 642 -703
524 -569 651 -701 676 -707 93 -20 1705 -79 2722 -99 634 -13 2013 -6 2335 10
845 44 1517 128 2173 272 293 64 639 159 802 220 l55 20 -59 87 c-91 137 -286
447 -423 677 -387 648 -615 1124 -664 1381 -20 110 -13 167 26 206 24 24 36
28 83 28 53 0 134 -22 196 -55 56 -28 45 -10 -31 55 -427 362 -1283 646 -2378
790 -547 71 -1111 106 -1860 115 l-435 6 -648 110 -647 110 -48 51 c-74 80
-385 372 -546 513 -746 653 -1569 1230 -2481 1739 -261 146 -853 442 -1120
560 -1358 601 -2755 969 -4155 1095 -375 34 -518 42 -928 48 -216 3 -395 10
-398 14 -4 8 -1230 9 -1494 2z"/>
<path d="M22825 13840 c-1089 -34 -1800 -98 -2213 -201 -148 -36 -232 -67
-232 -85 0 -11 193 -601 915 -2799 l185 -561 132 12 c2034 188 4236 322 6328
386 558 17 2440 17 2860 0 1067 -43 1847 -115 2398 -222 53 -10 98 -18 99 -16
4 4 -203 177 -376 316 -632 506 -1417 1040 -2151 1462 -1483 854 -2960 1416
-4370 1662 -122 21 -200 27 -490 37 -424 13 -2714 20 -3085 9z"/>
<path d="M18675 13263 c-22 -1 -103 -8 -180 -13 -417 -33 -843 -117 -1215
-239 -637 -211 -1152 -544 -1513 -979 -124 -149 -119 -123 -46 -254 180 -325
386 -583 584 -731 79 -59 205 -127 235 -127 9 0 23 13 33 29 96 163 363 315
653 371 367 70 820 39 1371 -96 l72 -18 453 -572 453 -573 302 0 301 -1 -339
1348 c-187 741 -368 1460 -402 1597 l-63 250 -70 6 c-70 7 -555 8 -629 2z"/>
<path d="M15079 11998 c-247 -22 -541 -163 -882 -421 l-128 -97 -59 15 c-199
51 -532 63 -741 26 -211 -37 -394 -107 -554 -213 -106 -69 -267 -227 -349
-341 -194 -271 -318 -657 -365 -1132 -15 -151 -25 -495 -15 -495 5 1 31 38 57
84 151 258 380 486 566 561 143 59 269 54 411 -16 70 -35 102 -59 181 -138
179 -180 316 -438 464 -871 204 -601 356 -1334 560 -2695 55 -368 69 -443 85
-456 10 -9 63 -31 117 -49 76 -26 120 -34 198 -38 181 -8 293 33 410 151 57
59 83 96 138 203 75 145 164 261 274 358 314 276 777 497 1223 585 334 65 652
60 873 -14 l68 -23 -183 187 c-611 625 -1083 1251 -1357 1799 -82 164 -156
340 -148 349 6 5 32 -5 672 -257 2186 -863 3780 -1445 3792 -1386 2 6 -49 205
-111 441 -63 237 -113 432 -111 433 2 2 66 -21 142 -51 653 -261 1226 -428
1526 -444 l107 -6 68 64 c301 289 694 486 1127 565 155 28 508 25 670 -5 170
-33 263 -39 400 -29 407 30 908 222 1412 541 179 114 336 228 327 237 -23 23
-447 170 -699 243 -741 215 -1506 347 -2375 413 -290 21 -1082 30 -1395 15
-342 -17 -889 -65 -1085 -96 l-35 -6 3 -77 c14 -299 -173 -496 -529 -558 -118
-20 -452 -15 -639 10 -418 57 -962 203 -1370 369 -1113 452 -1936 1172 -2400
2097 -65 130 -72 139 -107 151 -56 18 -148 25 -234 17z"/>
<path d="M25445 10249 c-786 -54 -1448 -99 -1470 -100 -44 -2 -44 -2 320 -65
382 -67 930 -193 1366 -314 1713 -478 3295 -1202 4638 -2123 551 -378 1108
-833 1567 -1280 l142 -137 306 2 307 3 -772 785 c-424 432 -830 845 -903 918
l-131 132 220 -76 c987 -339 1864 -542 2535 -584 163 -11 382 -6 475 9 l40 6
-80 33 c-253 105 -516 274 -672 429 -55 55 -143 168 -143 183 0 5 61 32 135
61 74 29 135 55 135 59 0 3 -60 42 -132 87 -272 166 -508 294 -908 492 -1522
756 -3237 1287 -4925 1525 -307 44 -426 56 -525 55 -52 -1 -738 -45 -1525
-100z"/>
<path d="M26486 9210 c-196 -257 -722 -562 -1301 -755 -437 -146 -769 -202
-1138 -192 -169 5 -223 10 -327 33 -102 22 -151 27 -265 27 -77 1 -169 -5
-205 -12 -188 -37 -413 -138 -575 -259 -112 -83 -276 -241 -357 -344 -60 -76
-65 -79 -133 -100 -244 -76 -611 38 -1022 318 l-122 83 75 -87 c194 -225 316
-471 360 -726 21 -118 15 -350 -11 -449 -18 -68 -18 -69 -47 -63 -129 26
-2160 896 -4363 1869 -192 85 -352 153 -353 152 -6 -5 55 -93 137 -195 333
-421 944 -887 1746 -1335 444 -248 1117 -566 1623 -765 73 -29 131 -55 128
-57 -16 -16 -141 -34 -271 -39 -429 -18 -1398 97 -2615 311 -29 5 -22 -1 40
-35 120 -66 370 -181 560 -258 937 -378 2224 -645 3528 -732 89 -6 166 -9 171
-6 4 3 12 29 15 58 26 191 114 608 176 828 256 906 652 1294 1420 1391 142 18
359 16 455 -5 466 -101 998 -489 1539 -1122 195 -227 446 -557 446 -585 0 -20
131 -105 265 -172 674 -336 2242 -721 4400 -1081 398 -66 1064 -170 1168 -182
32 -4 54 -10 50 -15 -11 -10 -221 -63 -353 -88 -661 -125 -1575 -149 -3155
-81 -815 35 -912 35 -922 3 -6 -17 90 -49 214 -72 656 -124 2521 -213 3803
-182 820 20 1310 56 1766 130 99 16 235 36 304 45 1006 125 3582 223 7255 276
1581 23 1736 27 1793 43 112 32 185 96 224 197 27 70 35 245 19 402 -7 62 -16
158 -21 213 -17 191 -122 414 -395 836 -93 145 -317 460 -322 455 -3 -2 2 -40
11 -83 58 -295 43 -508 -45 -608 -117 -133 -379 -86 -721 129 l-107 66 -53
-21 c-317 -125 -981 -244 -1778 -318 -1623 -152 -4431 -180 -7155 -72 l-179 7
-37 -37 c-99 -99 -362 -138 -984 -146 -455 -6 -409 -11 -810 87 -900 221
-2195 666 -2462 845 -275 186 -517 581 -697 1135 -97 297 -182 681 -193 872
l-6 97 34 20 c50 31 143 58 265 76 60 9 129 20 154 24 l45 7 -75 49 c-86 56
-259 133 -446 198 l-131 45 -37 -48z"/>
<path d="M12770 8854 c-147 -28 -264 -96 -395 -228 -123 -123 -203 -240 -300
-441 -210 -429 -332 -954 -376 -1615 -14 -217 -6 -724 16 -940 109 -1095 456
-1925 925 -2211 100 -61 187 -84 315 -83 122 0 191 20 302 85 84 49 257 226
331 338 396 601 591 1682 497 2761 -104 1192 -533 2129 -1055 2306 -70 24
-206 38 -260 28z m383 -813 c177 -61 331 -232 471 -521 279 -579 371 -1472
230 -2250 -101 -558 -319 -971 -582 -1101 -56 -28 -81 -34 -154 -37 -65 -3
-101 0 -140 13 -488 158 -839 1214 -768 2310 54 831 330 1461 695 1587 68 24
177 23 248 -1z"/>
<path d="M23448 7425 c-432 -68 -814 -410 -1093 -980 -243 -496 -390 -1105
-436 -1808 -15 -232 -6 -825 15 -1052 130 -1351 594 -2515 1252 -3144 229
-219 469 -357 716 -413 118 -26 318 -29 424 -5 277 62 516 216 725 466 395
470 651 1197 745 2111 21 211 30 793 15 1030 -102 1629 -711 3043 -1546 3593
-166 109 -334 175 -515 203 -114 17 -186 17 -302 -1z m530 -1075 c276 -77 535
-296 765 -645 97 -147 258 -472 326 -658 322 -873 378 -1946 146 -2791 -67
-246 -184 -511 -304 -693 -71 -107 -199 -245 -291 -315 -77 -59 -200 -120
-290 -144 -88 -24 -272 -24 -358 -1 -399 107 -766 502 -1033 1112 -369 844
-471 1997 -254 2880 161 655 467 1102 849 1242 127 46 308 51 444 13z"/>
<path d="M16212 6420 c-773 -139 -1058 -436 -826 -859 63 -115 181 -254 307
-363 62 -53 72 -58 115 -58 68 0 294 -34 462 -69 1003 -210 2550 -915 4280
-1951 231 -139 540 -330 540 -334 0 -2 -69 25 -152 61 -1871 797 -3590 1269
-5075 1393 -389 32 -899 32 -1181 -1 -121 -14 -159 -27 -82 -28 387 -5 2035
-411 4352 -1072 846 -241 2434 -708 2940 -865 13 -4 7 16 -26 88 -127 270
-211 670 -260 1238 -28 327 -38 650 -34 1168 1 281 1 512 -2 512 -3 0 -46 -9
-95 -19 -122 -27 -349 -57 -529 -72 -220 -17 -707 -6 -906 20 -393 54 -731
147 -1052 291 -132 60 -237 118 -443 245 -323 201 -555 320 -855 438 -533 211
-1108 303 -1478 237z"/>
<path d="M26260 4428 c0 -29 209 -217 330 -297 819 -541 2540 -923 4845 -1076
132 -9 244 -17 248 -18 4 -1 -113 -24 -260 -51 -509 -91 -1078 -209 -1407
-292 -176 -44 -431 -118 -477 -139 l-34 -16 40 6 c220 29 701 62 1105 76 948
31 1855 -63 2415 -253 207 -70 444 -208 517 -301 47 -61 72 -118 76 -179 11
-143 -92 -261 -323 -373 -281 -137 -668 -218 -1270 -267 -170 -14 -1260 -19
-1345 -6 -31 5 -37 4 -20 -2 14 -5 97 -18 185 -29 416 -53 933 -91 1680 -123
405 -18 2490 -18 3005 0 1873 63 3553 168 4685 293 1445 159 2282 368 2420
603 43 73 29 133 -48 204 -60 54 -111 76 -224 96 -227 40 -411 134 -463 237
-31 59 -27 134 11 205 100 191 309 390 477 454 31 12 67 26 79 30 35 14 66 86
71 166 11 178 -116 450 -347 742 l-65 83 -22 -111 c-28 -139 -51 -204 -126
-350 -264 -516 -873 -919 -1719 -1140 -527 -137 -1069 -204 -1829 -225 -241
-7 -1638 9 -2145 25 -1129 35 -1726 103 -2157 246 -140 46 -341 146 -453 226
-150 106 -342 305 -535 555 l-63 83 -396 0 c-723 0 -1627 32 -2311 81 -1905
136 -3264 405 -4062 805 -50 25 -88 39 -88 32z"/>
<path d="M26394 3663 c41 -298 73 -654 87 -991 26 -635 -45 -1145 -191 -1376
-17 -26 -30 -49 -30 -51 0 -3 873 -5 1939 -5 l1939 0 -5 39 c-10 76 34 153
111 193 57 30 216 35 396 13 180 -22 655 -31 865 -16 442 32 736 111 856 231
81 81 79 153 -5 235 -242 235 -1132 423 -1901 402 -405 -12 -720 -62 -1015
-161 l-105 -35 -31 32 c-17 18 -90 93 -163 169 l-133 136 384 239 383 238 -70
7 c-38 4 -184 14 -323 23 -1234 76 -2271 287 -2752 560 -77 44 -178 115 -204
144 -30 33 -39 26 -32 -26z"/>
</g>
</svg>
